<svg width="256" height="136" viewBox="0 0 256 136" fill="none" xmlns="http://www.w3.org/2000/svg">
<path fill-rule="evenodd" clip-rule="evenodd" d="M194.56 128C194.56 91.2399 164.76 61.44 128 61.44V0C198.692 0 256 57.3075 256 128H194.56ZM66.7166 15.5966C26.9642 37.316 8.63644e-05 79.5091 8.63644e-05 128H61.4401C61.4401 102.499 75.7827 80.3495 96.8401 69.1725L66.7166 15.5966Z" fill="#D9D9D9"/>
<path d="M96.8401 69.1725C75.7827 80.3495 61.4401 102.499 61.4401 128H8.63644e-05C-0.0526374 82.6607 24.0368 38.7058 66.6201 15.425L66.7166 15.5966L96.8401 69.1725Z" fill="#FCA211"/>
<path d="M128 61.44V0C105.799 0 84.9172 5.65239 66.7166 15.5966L96.8401 69.1725C105.31 64.6767 114.866 61.9544 125.013 61.5059C126.003 61.4621 126.999 61.44 128 61.44Z" fill="#FCA211"/>
<path d="M102.832 128.32C101.253 128.32 99.7067 128.096 98.192 127.648C96.6987 127.179 95.44 126.539 94.416 125.728L96.176 122.496C96.9867 123.157 97.968 123.691 99.12 124.096C100.293 124.501 101.509 124.704 102.768 124.704C104.24 124.704 105.392 124.395 106.224 123.776C107.077 123.157 107.504 122.325 107.504 121.28C107.504 120.576 107.323 119.957 106.96 119.424C106.619 118.891 106 118.485 105.104 118.208C104.229 117.931 103.024 117.792 101.488 117.792H96.08L97.232 105.6H110.384V109.088H98.768L100.944 107.104L100.08 116.224L97.904 114.272H102.416C104.635 114.272 106.416 114.571 107.76 115.168C109.125 115.744 110.117 116.555 110.736 117.6C111.376 118.624 111.696 119.797 111.696 121.12C111.696 122.421 111.376 123.616 110.736 124.704C110.096 125.792 109.115 126.667 107.792 127.328C106.491 127.989 104.837 128.32 102.832 128.32ZM123.44 128.32C121.669 128.32 120.069 127.872 118.64 126.976C117.232 126.08 116.122 124.779 115.312 123.072C114.501 121.344 114.096 119.253 114.096 116.8C114.096 114.347 114.501 112.267 115.312 110.56C116.122 108.832 117.232 107.52 118.64 106.624C120.069 105.728 121.669 105.28 123.44 105.28C125.232 105.28 126.832 105.728 128.24 106.624C129.648 107.52 130.757 108.832 131.568 110.56C132.4 112.267 132.816 114.347 132.816 116.8C132.816 119.253 132.4 121.344 131.568 123.072C130.757 124.779 129.648 126.08 128.24 126.976C126.832 127.872 125.232 128.32 123.44 128.32ZM123.44 124.704C124.485 124.704 125.392 124.427 126.16 123.872C126.928 123.296 127.525 122.421 127.952 121.248C128.4 120.075 128.624 118.592 128.624 116.8C128.624 114.987 128.4 113.504 127.952 112.352C127.525 111.179 126.928 110.315 126.16 109.76C125.392 109.184 124.485 108.896 123.44 108.896C122.437 108.896 121.541 109.184 120.752 109.76C119.984 110.315 119.376 111.179 118.928 112.352C118.501 113.504 118.288 114.987 118.288 116.8C118.288 118.592 118.501 120.075 118.928 121.248C119.376 122.421 119.984 123.296 120.752 123.872C121.541 124.427 122.437 124.704 123.44 124.704ZM138.763 128L154.059 105.6H157.195L141.899 128H138.763ZM140.619 117.664C139.573 117.664 138.645 117.408 137.835 116.896C137.024 116.384 136.395 115.669 135.947 114.752C135.499 113.835 135.275 112.757 135.275 111.52C135.275 110.283 135.499 109.205 135.947 108.288C136.395 107.371 137.024 106.656 137.835 106.144C138.645 105.632 139.573 105.376 140.619 105.376C141.707 105.376 142.645 105.632 143.435 106.144C144.245 106.656 144.875 107.371 145.323 108.288C145.771 109.205 145.995 110.283 145.995 111.52C145.995 112.757 145.771 113.835 145.323 114.752C144.875 115.669 144.245 116.384 143.435 116.896C142.645 117.408 141.707 117.664 140.619 117.664ZM140.651 115.424C141.504 115.424 142.165 115.093 142.635 114.432C143.125 113.749 143.371 112.779 143.371 111.52C143.371 110.261 143.125 109.301 142.635 108.64C142.165 107.957 141.504 107.616 140.651 107.616C139.797 107.616 139.115 107.957 138.603 108.64C138.112 109.323 137.867 110.283 137.867 111.52C137.867 112.757 138.112 113.717 138.603 114.4C139.115 115.083 139.797 115.424 140.651 115.424ZM155.307 128.224C154.261 128.224 153.333 127.968 152.523 127.456C151.712 126.944 151.083 126.229 150.635 125.312C150.187 124.395 149.963 123.317 149.963 122.08C149.963 120.843 150.187 119.765 150.635 118.848C151.083 117.931 151.712 117.216 152.523 116.704C153.333 116.192 154.261 115.936 155.307 115.936C156.395 115.936 157.333 116.192 158.123 116.704C158.933 117.216 159.563 117.931 160.011 118.848C160.459 119.765 160.683 120.843 160.683 122.08C160.683 123.317 160.459 124.395 160.011 125.312C159.563 126.229 158.933 126.944 158.123 127.456C157.333 127.968 156.395 128.224 155.307 128.224ZM155.307 125.984C156.16 125.984 156.832 125.643 157.323 124.96C157.813 124.277 158.059 123.317 158.059 122.08C158.059 120.843 157.813 119.883 157.323 119.2C156.832 118.517 156.16 118.176 155.307 118.176C154.475 118.176 153.803 118.517 153.291 119.2C152.8 119.861 152.555 120.821 152.555 122.08C152.555 123.339 152.8 124.309 153.291 124.992C153.803 125.653 154.475 125.984 155.307 125.984Z" fill="#FCA211"/>
</svg>
