<svg width="256" height="136" viewBox="0 0 256 136" fill="none" xmlns="http://www.w3.org/2000/svg">
<path fill-rule="evenodd" clip-rule="evenodd" d="M96.8387 69.17L66.7166 15.5966C26.9642 37.316 8.63644e-05 79.5091 8.63644e-05 128H61.4401C61.4401 102.499 75.7813 80.347 96.8387 69.17ZM194.56 128C194.56 106.478 184.346 87.3422 168.5 75.1754L207.5 27.6753C237.049 51.1224 256 87.3481 256 128H194.56Z" fill="#D9D9D9"/>
<path d="M96.8387 69.17C75.7813 80.347 61.4401 102.499 61.4401 128H8.63644e-05C-0.0526374 82.6607 24.0368 38.7058 66.6201 15.425L66.7166 15.5966L96.8387 69.17Z" fill="#FCA211"/>
<path d="M96.8387 69.17C105.309 64.6741 114.866 61.954 125.013 61.5059C126.003 61.4622 126.999 61.44 128 61.44C143.238 61.44 157.281 66.5608 168.5 75.1754L207.5 27.6753C185.664 10.3486 158.041 0 128 0C105.799 0 84.9172 5.65239 66.7166 15.5966L96.8387 69.17Z" fill="#FCA211"/>
<path d="M103.152 128L112.4 107.264L113.488 109.12H100.784L102.768 107.104V112.928H98.896V105.6H116.304V108.384L107.6 128H103.152ZM127.596 128.32C125.825 128.32 124.225 127.872 122.796 126.976C121.388 126.08 120.278 124.779 119.468 123.072C118.657 121.344 118.252 119.253 118.252 116.8C118.252 114.347 118.657 112.267 119.468 110.56C120.278 108.832 121.388 107.52 122.796 106.624C124.225 105.728 125.825 105.28 127.596 105.28C129.388 105.28 130.988 105.728 132.396 106.624C133.804 107.52 134.913 108.832 135.724 110.56C136.556 112.267 136.972 114.347 136.972 116.8C136.972 119.253 136.556 121.344 135.724 123.072C134.913 124.779 133.804 126.08 132.396 126.976C130.988 127.872 129.388 128.32 127.596 128.32ZM127.596 124.704C128.641 124.704 129.548 124.427 130.316 123.872C131.084 123.296 131.681 122.421 132.108 121.248C132.556 120.075 132.78 118.592 132.78 116.8C132.78 114.987 132.556 113.504 132.108 112.352C131.681 111.179 131.084 110.315 130.316 109.76C129.548 109.184 128.641 108.896 127.596 108.896C126.593 108.896 125.697 109.184 124.908 109.76C124.14 110.315 123.532 111.179 123.084 112.352C122.657 113.504 122.444 114.987 122.444 116.8C122.444 118.592 122.657 120.075 123.084 121.248C123.532 122.421 124.14 123.296 124.908 123.872C125.697 124.427 126.593 124.704 127.596 124.704ZM142.919 128L158.215 105.6H161.351L146.055 128H142.919ZM144.775 117.664C143.73 117.664 142.802 117.408 141.991 116.896C141.18 116.384 140.551 115.669 140.103 114.752C139.655 113.835 139.431 112.757 139.431 111.52C139.431 110.283 139.655 109.205 140.103 108.288C140.551 107.371 141.18 106.656 141.991 106.144C142.802 105.632 143.73 105.376 144.775 105.376C145.863 105.376 146.802 105.632 147.591 106.144C148.402 106.656 149.031 107.371 149.479 108.288C149.927 109.205 150.151 110.283 150.151 111.52C150.151 112.757 149.927 113.835 149.479 114.752C149.031 115.669 148.402 116.384 147.591 116.896C146.802 117.408 145.863 117.664 144.775 117.664ZM144.807 115.424C145.66 115.424 146.322 115.093 146.791 114.432C147.282 113.749 147.527 112.779 147.527 111.52C147.527 110.261 147.282 109.301 146.791 108.64C146.322 107.957 145.66 107.616 144.807 107.616C143.954 107.616 143.271 107.957 142.759 108.64C142.268 109.323 142.023 110.283 142.023 111.52C142.023 112.757 142.268 113.717 142.759 114.4C143.271 115.083 143.954 115.424 144.807 115.424ZM159.463 128.224C158.418 128.224 157.49 127.968 156.679 127.456C155.868 126.944 155.239 126.229 154.791 125.312C154.343 124.395 154.119 123.317 154.119 122.08C154.119 120.843 154.343 119.765 154.791 118.848C155.239 117.931 155.868 117.216 156.679 116.704C157.49 116.192 158.418 115.936 159.463 115.936C160.551 115.936 161.49 116.192 162.279 116.704C163.09 117.216 163.719 117.931 164.167 118.848C164.615 119.765 164.839 120.843 164.839 122.08C164.839 123.317 164.615 124.395 164.167 125.312C163.719 126.229 163.09 126.944 162.279 127.456C161.49 127.968 160.551 128.224 159.463 128.224ZM159.463 125.984C160.316 125.984 160.988 125.643 161.479 124.96C161.97 124.277 162.215 123.317 162.215 122.08C162.215 120.843 161.97 119.883 161.479 119.2C160.988 118.517 160.316 118.176 159.463 118.176C158.631 118.176 157.959 118.517 157.447 119.2C156.956 119.861 156.711 120.821 156.711 122.08C156.711 123.339 156.956 124.309 157.447 124.992C157.959 125.653 158.631 125.984 159.463 125.984Z" fill="#FCA211"/>
</svg>
