<svg width="256" height="136" viewBox="0 0 256 136" fill="none" xmlns="http://www.w3.org/2000/svg">
<path d="M128 61.44C164.76 61.44 194.56 91.2399 194.56 128H256C256 57.3076 198.692 0 128 0C57.3076 0 8.63644e-05 57.3076 8.63644e-05 128H61.4401C61.4401 91.2399 91.24 61.44 128 61.44Z" fill="#D9D9D9"/>
<path d="M96.8401 69.1725C75.7829 80.3495 61.4401 102.499 61.4401 128H8.63644e-05C-0.0526374 82.6607 24.0368 38.7058 66.6201 15.425L96.8401 69.1725Z" fill="#FCA211"/>
<path d="M103.448 128.32C101.869 128.32 100.323 128.096 98.808 127.648C97.3147 127.179 96.056 126.539 95.032 125.728L96.824 122.496C97.6347 123.157 98.616 123.691 99.768 124.096C100.92 124.501 102.125 124.704 103.384 124.704C104.877 124.704 106.04 124.405 106.872 123.808C107.704 123.189 108.12 122.357 108.12 121.312C108.12 120.288 107.736 119.477 106.968 118.88C106.2 118.283 104.963 117.984 103.256 117.984H101.208V115.136L107.608 107.52L108.152 109.088H96.12V105.6H111.384V108.384L104.984 116L102.808 114.72H104.056C106.808 114.72 108.867 115.339 110.232 116.576C111.619 117.792 112.312 119.36 112.312 121.28C112.312 122.539 111.992 123.701 111.352 124.768C110.712 125.835 109.731 126.699 108.408 127.36C107.107 128 105.453 128.32 103.448 128.32ZM118.465 128L127.713 107.264L128.801 109.12H116.097L118.081 107.104V112.928H114.209V105.6H131.617V108.384L122.913 128H118.465ZM137.357 128L152.653 105.6H155.789L140.493 128H137.357ZM139.213 117.664C138.167 117.664 137.239 117.408 136.429 116.896C135.618 116.384 134.989 115.669 134.541 114.752C134.093 113.835 133.868 112.757 133.868 111.52C133.868 110.283 134.093 109.205 134.541 108.288C134.989 107.371 135.618 106.656 136.429 106.144C137.239 105.632 138.167 105.376 139.213 105.376C140.301 105.376 141.239 105.632 142.029 106.144C142.839 106.656 143.469 107.371 143.917 108.288C144.365 109.205 144.589 110.283 144.589 111.52C144.589 112.757 144.365 113.835 143.917 114.752C143.469 115.669 142.839 116.384 142.029 116.896C141.239 117.408 140.301 117.664 139.213 117.664ZM139.245 115.424C140.098 115.424 140.759 115.093 141.229 114.432C141.719 113.749 141.965 112.779 141.965 111.52C141.965 110.261 141.719 109.301 141.229 108.64C140.759 107.957 140.098 107.616 139.245 107.616C138.391 107.616 137.709 107.957 137.197 108.64C136.706 109.323 136.461 110.283 136.461 111.52C136.461 112.757 136.706 113.717 137.197 114.4C137.709 115.083 138.391 115.424 139.245 115.424ZM153.901 128.224C152.855 128.224 151.927 127.968 151.117 127.456C150.306 126.944 149.677 126.229 149.229 125.312C148.781 124.395 148.557 123.317 148.557 122.08C148.557 120.843 148.781 119.765 149.229 118.848C149.677 117.931 150.306 117.216 151.117 116.704C151.927 116.192 152.855 115.936 153.901 115.936C154.989 115.936 155.927 116.192 156.717 116.704C157.527 117.216 158.157 117.931 158.605 118.848C159.053 119.765 159.277 120.843 159.277 122.08C159.277 123.317 159.053 124.395 158.605 125.312C158.157 126.229 157.527 126.944 156.717 127.456C155.927 127.968 154.989 128.224 153.901 128.224ZM153.901 125.984C154.754 125.984 155.426 125.643 155.917 124.96C156.407 124.277 156.653 123.317 156.653 122.08C156.653 120.843 156.407 119.883 155.917 119.2C155.426 118.517 154.754 118.176 153.901 118.176C153.069 118.176 152.397 118.517 151.885 119.2C151.394 119.861 151.149 120.821 151.149 122.08C151.149 123.339 151.394 124.309 151.885 124.992C152.397 125.653 153.069 125.984 153.901 125.984Z" fill="#FCA211"/>
</svg>
